<svg xmlns="http://www.w3.org/2000/svg" viewBox="0 0 1730.73 770.74"><defs><style>.cls-1{fill:#fff;}</style></defs><g id="Camada_2" data-name="Camada 2"><g id="Camada_1-2" data-name="Camada 1"><path class="cls-1" d="M622.2.82l-285.49,548c-26.57,51-75.87,82.46-129.28,82.55L0,631.73,267,119.55,45.15.82Z"/><path class="cls-1" d="M1682.19,105.09c51.52,51.85,63.5,136.07,28.84,202.76L1513.46,687.93c-26.55,51.18-76,82.79-129.55,82.81H1177L1248.65,633H404.17L671.56,118C708.77,46.33,778,2.1,853,2.09h620.66L976,182.58c-35,12.7-64.54,39.22-82.85,74.45L735.25,560.74h464.56c53.56,0,103-31.63,129.56-82.81L1577.67,0Z"/></g></g></svg>